<?xml version="1.0" encoding="UTF-8"?>
<svg id="Isolation_Mode" data-name="Isolation Mode" xmlns="http://www.w3.org/2000/svg" viewBox="0 0 455 446.01">
  <defs>
    <style>
      .cls-1 {
        fill: #162a4d;
      }
    </style>
  </defs>
  <g>
    <path class="cls-1" d="M135.73,420.88v-63h13.5v63h-13.5Z"/>
    <path class="cls-1" d="M165.2,420.88v-63h40.14v13.5h-26.64v9h20.52v13.5h-20.52v13.5h26.64v13.5h-40.14Z"/>
    <path class="cls-1" d="M219.05,420.88v-63h13.5v49.5h24.75v13.5h-38.25Z"/>
    <path class="cls-1" d="M311.97,357.88v13.5h-18v49.5h-13.5v-49.5h-18v-13.5h49.5Z"/>
    <path class="cls-1" d="M347.82,422.05c-3.54,0-6.93-.56-10.17-1.69-3.24-1.12-6.08-2.75-8.5-4.86-2.43-2.12-4.19-4.64-5.27-7.58l12.69-4.68c.3,.87,.97,1.71,2,2.52,1.04,.81,2.35,1.48,3.94,2,1.59,.53,3.36,.79,5.31,.79,1.8,0,3.49-.26,5.08-.79,1.59-.52,2.88-1.25,3.87-2.18,.99-.93,1.48-2.01,1.48-3.24s-.52-2.3-1.55-3.13c-1.04-.83-2.36-1.49-3.96-1.98-1.61-.5-3.25-.86-4.93-1.1-4.56-.66-8.65-1.75-12.26-3.26-3.62-1.51-6.47-3.61-8.55-6.28-2.09-2.67-3.13-6.06-3.13-10.17s1.11-7.37,3.33-10.33c2.22-2.96,5.15-5.26,8.8-6.91,3.65-1.65,7.58-2.48,11.81-2.48,3.54,0,6.94,.56,10.19,1.69,3.25,1.12,6.1,2.75,8.53,4.88,2.43,2.13,4.17,4.68,5.22,7.65l-12.69,4.59c-.3-.87-.97-1.7-2-2.5-1.04-.79-2.35-1.45-3.94-1.96-1.59-.51-3.36-.77-5.31-.77-1.74-.03-3.41,.23-5,.77-1.59,.54-2.9,1.28-3.92,2.21-1.02,.93-1.53,1.98-1.53,3.15,0,1.62,.48,2.83,1.44,3.62,.96,.79,2.23,1.36,3.8,1.69,1.57,.33,3.31,.63,5.2,.9,4.32,.63,8.29,1.75,11.93,3.38,3.63,1.62,6.54,3.78,8.73,6.48,2.19,2.7,3.28,5.98,3.28,9.85s-1.1,7.37-3.31,10.33c-2.2,2.96-5.12,5.26-8.75,6.91s-7.59,2.47-11.88,2.47Z"/>
  </g>
  <path class="cls-1" d="M414.28,72.51c-2.83-.74-5.71-1.28-8.53-2.05-5.06-1.38-10.07-2.95-15.15-4.3-6.61-1.75-13.29-3.26-19.9-5.05-9-2.43-17.95-5.06-26.95-7.53-5.31-1.46-10.65-2.76-15.98-4.16-7.34-1.93-14.67-3.88-22.02-5.8-6.22-1.63-12.47-3.14-18.67-4.83-8.92-2.43-17.8-5.02-26.71-7.46-5.07-1.38-10.19-2.56-15.27-3.9-2.74-.72-5.39-1.86-8.16-2.32-3.09-.51-6.01-2.44-9.46,.2-8.36,6.4-17.1,12.3-25.67,18.42-10.69,7.62-21.38,15.24-32.05,22.88-18.5,13.24-36.98,26.5-55.49,39.72-20.14,14.39-40.31,28.74-60.45,43.11-.71,.5-1.32,1.14-2.49,2.16,15.94,4.16,31.27,8.17,46.89,12.25-3.57,8.15-6.21,16.43-8.07,24.82-3.53,9.69-9.79,23.84-9.79,23.84h0c-1.34,2.9-2.74,5.78-4.22,8.61-3.57,6.85-8.08,13.2-12.17,19.77-.88,1.42-1.85,2.79-2.64,4.26-.88,1.63-1.95,2.24-3.87,1.71-4.34-1.18-4.2-1-6.33,2.88-2.35,4.31-5.28,8.31-7.5,12.68-1.94,3.83-3.6,7.89-4.7,12.03-1.02,3.84,1.33,6.91,4.36,8.89,3.89,2.55,8,4.84,12.23,6.76,6.72,3.04,6.5,3.34,9.93-3.38,4.02-7.87,8.6-15.44,12.97-23.12,1.32-2.32,2.76-4.56,4.15-6.84,1.67-2.75,1.38-3.34-1.76-3.74-.33-.04-.65-.14-.97-.24-.15-.05-.27-.18-.96-.66,6.32-9.98,11.91-21.72,16.12-33.51,4.64-11.87,12.34-39.33,12.34-39.33l-.21,.1c.33-1,.6-2,.76-3,1.62-10.58,5.68-20.19,12.72-28.43,7.7-9.02,17.43-15.26,27.87-20.53,10.28-5.18,21.14-8.69,32.41-10.99,13.01-2.66,26.06-4.31,39.21-1.27,3.55,.82,6.87,2.59,10.3,3.93-6.28-.86-12.38-1.59-18.61-1.04-6.06,.53-12.2,.52-18.18,1.51-18.13,2.98-35.42,8.54-51.03,18.46-11.02,7.01-20.42,15.63-25.7,28.01-.77,1.8-.29,2.49,1.3,2.9,1.94,.5,3.92,.86,5.86,1.37,8.15,2.11,16.27,4.32,24.44,6.32,2.35,.58,3.12,1.91,3.2,4.07,.26,7.08,.51,14.17,.84,21.25,.04,.87-.15,5.8-.4,11.78,12.48-15.07,27.5-28.01,44.57-38.27,30.39-18.26,65.23-26.69,100.74-24.39,14.94,.97,29.51,3.82,43.45,8.42-4.03-6.15-8.02-12.31-12.17-18.37-1.24-1.81-.88-2.71,.76-3.83,3.66-2.49,7.25-5.09,10.83-7.7,12.84-9.36,25.66-18.76,38.51-28.11,12.04-8.76,24.12-17.47,36.16-26.23,.56-.4,.91-1.09,1.35-1.65-.67-.38-1.3-.94-2.03-1.12Z"/>
  <path class="cls-1" d="M300.15,164.27c-.86-.07-1.71-.12-2.57-.18l-43.52,105.9-37.33-90.82c-4.62,2.15-9.16,4.51-13.6,7.09-15.54,9.03-29.4,20.36-41.22,33.7l-26.18,124.66h43l20.52-98.28,40.19,98.28h29.23l40.19-98.28,20.52,98.28h43l-36.44-173.52c-11.6-3.55-23.61-5.84-35.8-6.82Z"/>
</svg>